<?xml version="1.0" encoding="UTF-8"?>
<svg id="Layer_2" data-name="Layer 2" xmlns="http://www.w3.org/2000/svg" xmlns:xlink="http://www.w3.org/1999/xlink" viewBox="0 0 2349.67 397.28">
  <defs>
    <style>
      .cls-1 {
        font-family: KoHo-Light, KoHo;
        font-size: 214.7px;
        font-weight: 300;
      }

      .cls-1, .cls-2 {
        fill: #444c34;
      }

      .cls-3 {
        fill: url(#New_Gradient_Swatch);
      }

      .cls-2 {
        font-family: KoHo-Light, KoHo;
        font-size: 99px;
      }

      .cls-4 {
        letter-spacing: -.09em;
      }

      .cls-5 {
        letter-spacing: -.02em;
      }

      .cls-6 {
        letter-spacing: -.02em;
      }

      .cls-7 {
        letter-spacing: -.02em;
      }

      .cls-8 {
        letter-spacing: -.02em;
      }

      .cls-9 {
        letter-spacing: -.03em;
      }

      .cls-10 {
        letter-spacing: -.04em;
      }

      .cls-11 {
        letter-spacing: -.04em;
      }

      .cls-12 {
        letter-spacing: -.03em;
      }

      .cls-13 {
        letter-spacing: .05em;
      }

      .cls-14 {
        letter-spacing: .05em;
      }

      .cls-15 {
        letter-spacing: .04em;
      }

      .cls-16 {
        letter-spacing: .03em;
      }

      .cls-17 {
        letter-spacing: 0em;
      }

      .cls-18 {
        letter-spacing: 0em;
      }

      .cls-19 {
        letter-spacing: 0em;
      }
    </style>
    <linearGradient id="New_Gradient_Swatch" data-name="New Gradient Swatch" x1="0" y1="198.64" x2="396.46" y2="198.64" gradientUnits="userSpaceOnUse">
      <stop offset="0" stop-color="#b8ca95"/>
      <stop offset="1" stop-color="#444c34"/>
    </linearGradient>
  </defs>
  <g id="Layer_1-2" data-name="Layer 1">
    <path class="cls-3" d="M243.69,77.21c-19-27.92-7.15-54.2,17.5-68.73,1.26-.6,2.36-.77,3.17-.31l.06.04c1.34.77,1.81,3.37,2.06,5.24,3.93,27.5,9.4,52.9-13.16,67.72-1.44.77-2.92,1.06-4.32.7-2.07-.47-3.97-2.61-5.32-4.66ZM100.36,139.92c-1.84-.15-4.57-.23-5.57,1.3l-.04.07c-.65.97-.69,2.54-.34,4.44,10.68,44.35,34.53,68.93,75.36,47.2,2.4-1.22,5.06-3.08,6.06-5.64.76-1.79.84-3.9.45-6.12-9.97-42.92-41.02-39.13-75.92-41.25ZM305.1,103.29c.71,1.15,1.8,1.95,3.1,2.45,22.27,6.69,31.72-15.96,43.11-34.98,1.19-2.54-.09-3.68-2.31-4.28-25.23-5.56-43.74,1.1-44.98,32.28,0,1.7.32,3.25,1.03,4.44l.05.09ZM233.79,220.63c-1.34,1.18-1.83,2.86-2.4,5.07-14.29,57.14,18.35,68.61,50.74,99.27,2.67,2.34,3.96.68,4.67-2.81,11.81-59.61,8.05-94.91-47.92-102.34-1.98-.24-3.53-.39-5.02.75l-.07.06ZM124.43,123.3c3.44-.27,7.39-.97,9.7-3.71,1.44-1.65,2.18-3.87,2.48-6.44,2.77-44.33-27.94-56.16-60.48-68.46-2.08-.83-5.08-1.8-6.61-.08l-.07.08c-.93,1.04-1.36,2.95-1.46,5.39.86,49.9,9.21,77.86,56.44,73.22ZM324.28,213.01c-2.62.63-5.66,1.92-7.37,4.32-1.2,1.6-1.88,3.67-2.13,5.94-1.51,37.02,23.82,43.73,49.97,53.56,1.77.68,4.3,1.49,5.81.18l.07-.06c.92-.8,1.46-2.3,1.74-4.25,3.07-39.56-12.05-69.02-48.1-59.7ZM393.93,162.42c-44.17-37.92-74.98-52.29-114.47-1.98-2.4,3.26-6.18,6.62-4.32,10.73l.05.1c.93,2,3.21,4.11,5.15,5.65,43.5,36.84,66.4,11.85,111.71-7.56,1.6-.61,4.55-1.81,4.42-3.38,0-1.04-1.05-2.25-2.53-3.57ZM127.29,304.15c1.48-2.39,2.43-4.81,2.52-7.03v-.16c.07-2.16-.68-4.14-1.98-5.84-23.87-26.67-56.38-2.21-88.3,15.65-3.82,2.64-3.12,5.24-.67,7.8,28.81,27.39,59.37,32.39,88.43-10.42ZM249.79,344.49c-43.07-15.59-53.84-51.52-50.1-88.22,6.11-69.32,91.93-104.09,90.32-164.6,0-6.58-.93-16.82-3.43-20.82-1.78-2.67-3.32,1.65-4.43,6.35-.79,3.37-3.26,11.53-4.87,16.39-3.7,11.09-7.9,18.07-13.17,25.21-7.85,10.65-21.52,25.21-31.62,36.14-14.8,16.01-28.98,26.05-43.91,44.96-12.94,16.39-19.23,29.16-24.95,48.35-4.27,13.02-6.65,27-7.58,40.34-1.2,13.81-1.3,26.29-8,37.95-5.43,9.37-15.56,15.94-25.93,21.3-2.44,1.26-5.05,2.22-7.66,3.11-3.9,1.34-7.87,2.49-11.84,3.6-6.87,1.92-10.31,2.85-10.82,2.95-3.71.54-7.48,1.41-9.33,2.88,32.86,23.23,72.98,36.89,116.28,36.89s80.67-12.73,112.89-34.54c-4.22-1.8-15.48-3.47-21.84-5.64-12.22-3.86-26.3-7.27-40.01-12.61ZM313.52,274.54c-1.61.1-3.04.53-4.12,1.39-1.62,1.22-2.38,3.53-2.68,5.54-4.65,27.61,17.24,40.66,45.34,40.01,1.38-.13,2.42-.49,2.94-1.17l.04-.05c.85-1.12.13-3.12-.46-4.53-8.48-20.76-14.69-40.74-41.06-41.2ZM70.99,174.73c1.99-.8,3.69-2,4.8-3.67l.08-.12c1.08-1.64,1.59-3.71,1.67-5.96-.8-37.79-31.04-41.95-57.77-50.82-3.44-.66-4.29,1.85-4.13,5.59,3.26,41.87,18.27,67.57,55.34,54.98ZM123.23,243.37c2.97-2.88,6.63-7.12,7.48-10.68.87-3.41-.51-6.14-3.09-9.42-2.75-3.41-6.29-7.43-9.52-10.8-36.33-38.95-62.19-15.79-110.78-5.05-2.7.87-4.96,1.95-6.18,3.44l-.1.12c-3.18,4.01,1.65,10.19,4.36,13.91,35.54,47.86,73.52,63.12,117.82,18.48ZM212.01,144.69c2.96.79,5.29,1.76,7.82.93l.09-.04c2.65-1.47,3.28-5.81,4.48-9.02,24.06-71.34-12.9-87.62-55.23-134.57-3.46-3.61-5.67-2-7.21,2.52-25.29,74.95-25.34,118.95,50.06,140.19Z"/>
    <g>
      <text class="cls-2" transform="translate(457.97 330.33)"><tspan class="cls-13" x="0" y="0">PSI</tspan><tspan class="cls-16" x="176.71" y="0">C</tspan><tspan class="cls-14" x="251.36" y="0">Ó</tspan><tspan class="cls-15" x="339.37" y="0">L</tspan><tspan class="cls-14" x="401.24" y="0">OGA</tspan></text>
      <text class="cls-1" transform="translate(451.48 223.5)"><tspan class="cls-19" x="0" y="0">K</tspan><tspan class="cls-12" x="142.46" y="0">A</tspan><tspan class="cls-9" x="275.46" y="0">L</tspan><tspan class="cls-17" x="388.48" y="0">E</tspan><tspan class="cls-7" x="516.08" y="0">A</tspan><tspan class="cls-10" x="651.19" y="0">N</tspan><tspan class="cls-11" x="795.66" y="0">D</tspan><tspan class="cls-18" x="937.45" y="0">R</tspan><tspan x="1080.1" y="0">A </tspan><tspan class="cls-5" x="1270.32" y="0">R</tspan><tspan class="cls-6" x="1406.59" y="0">E</tspan><tspan class="cls-8" x="1527.69" y="0">S</tspan><tspan class="cls-4" x="1654.38" y="0">T</tspan><tspan x="1758.64" y="0">A</tspan></text>
    </g>
  </g>
</svg>
